<svg xmlns="http://www.w3.org/2000/svg" width="123.051" height="128.208" viewBox="0 0 123.051 128.208">
  <g id="Group_9807" data-name="Group 9807" transform="translate(-174.984 -507)">
    <text id="أ" transform="translate(285.035 557)" fill="#175960" stroke="#175960" stroke-width="1" font-size="45" font-family="SegoeUI, Segoe UI"><tspan x="0" y="0">أ</tspan></text>
    <g id="Rectangle_17430" data-name="Rectangle 17430" transform="translate(286.984 522)" fill="#175960" stroke="#175960" stroke-width="1">
      <rect width="8" height="100" rx="4" stroke="none"/>
      <rect x="0.5" y="0.5" width="7" height="99" rx="3.5" fill="none"/>
    </g>
    <g id="Rectangle_17431" data-name="Rectangle 17431" transform="translate(272.984 567)" fill="#175960" stroke="#175960" stroke-width="1">
      <rect width="8" height="68" rx="4" stroke="none"/>
      <rect x="0.5" y="0.5" width="7" height="67" rx="3.5" fill="none"/>
    </g>
    <g id="Rectangle_17434" data-name="Rectangle 17434" transform="translate(248.984 569)" fill="#175960" stroke="#175960" stroke-width="1">
      <rect width="7" height="45" rx="3.5" stroke="none"/>
      <rect x="0.5" y="0.5" width="6" height="44" rx="3" fill="none"/>
    </g>
    <g id="Rectangle_17437" data-name="Rectangle 17437" transform="translate(205.984 569)" fill="#175960" stroke="#175960" stroke-width="1">
      <rect width="7" height="45" rx="3.5" stroke="none"/>
      <rect x="0.5" y="0.5" width="6" height="44" rx="3" fill="none"/>
    </g>
    <g id="Rectangle_17438" data-name="Rectangle 17438" transform="translate(174.984 569)" fill="#175960" stroke="#175960" stroke-width="1">
      <rect width="8" height="45" rx="4" stroke="none"/>
      <rect x="0.5" y="0.5" width="7" height="44" rx="3.5" fill="none"/>
    </g>
    <g id="Rectangle_17439" data-name="Rectangle 17439" transform="translate(188.984 620)" fill="#175960" stroke="#175960" stroke-width="1">
      <rect width="8" height="9" rx="3" stroke="none"/>
      <rect x="0.5" y="0.5" width="7" height="8" rx="2.5" fill="none"/>
    </g>
    <g id="Rectangle_17433" data-name="Rectangle 17433" transform="translate(279.947 627.576) rotate(90)" fill="#175960" stroke="#175960" stroke-width="1">
      <rect width="7.633" height="15.265" rx="3.816" stroke="none"/>
      <rect x="0.5" y="0.5" width="6.633" height="14.265" rx="3.316" fill="none"/>
    </g>
    <g id="Rectangle_17436" data-name="Rectangle 17436" transform="translate(255.984 606) rotate(90)" fill="#175960" stroke="#175960" stroke-width="1">
      <rect width="8" height="81" rx="4" stroke="none"/>
      <rect x="0.5" y="0.5" width="7" height="80" rx="3.5" fill="none"/>
    </g>
    <g id="Rectangle_17435" data-name="Rectangle 17435" transform="translate(255.984 569) rotate(90)" fill="#175960" stroke="#175960" stroke-width="1">
      <rect width="8" height="17" rx="4" stroke="none"/>
      <rect x="0.5" y="0.5" width="7" height="16" rx="3.5" fill="none"/>
    </g>
  </g>
</svg>
