<svg id="svgexport-6_7_" data-name="svgexport-6 (7)" xmlns="http://www.w3.org/2000/svg" width="25.759" height="21.044" viewBox="0 0 25.759 21.044">
  <path id="XMLID_874_" d="M24.5,57.416v-.491a2.577,2.577,0,0,0-1.174-2.16V49.413a2.556,2.556,0,0,0-2.553-2.553H4.985a2.556,2.556,0,0,0-2.554,2.553v5.351a2.577,2.577,0,0,0-1.174,2.16v.491A1.69,1.69,0,0,0,0,59.047v5.74a1.689,1.689,0,0,0,1.606,1.685v.679a.753.753,0,1,0,1.506,0v-.677H22.646v.677a.753.753,0,1,0,1.506,0v-.679a1.689,1.689,0,0,0,1.606-1.685v-5.74A1.689,1.689,0,0,0,24.5,57.416Zm-20.564-8a1.048,1.048,0,0,1,1.047-1.047h15.79a1.048,1.048,0,0,1,1.047,1.047v4.934h-1V53.02a1.687,1.687,0,0,0-1.685-1.685H15.079a1.687,1.687,0,0,0-1.685,1.685v1.328H12.365V53.02a1.687,1.687,0,0,0-1.685-1.685H6.627A1.687,1.687,0,0,0,4.942,53.02v1.328h-1ZM19.311,53.02v1.149a.179.179,0,0,1-.179.179H15.079a.179.179,0,0,1-.179-.179V53.02a.179.179,0,0,1,.179-.179h4.053a.179.179,0,0,1,.179.179Zm-8.452,0v1.149a.179.179,0,0,1-.179.179H6.627a.179.179,0,0,1-.179-.179V53.02a.179.179,0,0,1,.179-.179H10.68A.179.179,0,0,1,10.859,53.02Zm-8.1,3.905a1.073,1.073,0,0,1,1.071-1.071H21.924A1.073,1.073,0,0,1,23,56.925v.435H2.764Zm21.489,7.862a.18.18,0,0,1-.18.18H1.687a.18.18,0,0,1-.18-.18v-5.74a.18.18,0,0,1,.18-.18H24.073a.18.18,0,0,1,.18.18v5.74Z" transform="translate(0 -46.86)" fill="#fff"/>
</svg>
