<svg xmlns="http://www.w3.org/2000/svg" width="25.759" height="25.759" viewBox="0 0 25.759 25.759">
  <g id="Group_403" data-name="Group 403" transform="translate(0 0)">
    <path id="Path_4006" data-name="Path 4006" d="M13.516,16.755H8.894a.679.679,0,0,0-.621.953l1.243,2.816a.679.679,0,0,0,.621.4h5.485a.68.68,0,0,0,.621-.4l1.243-2.816a.679.679,0,0,0-.621-.953H15.277a.377.377,0,0,0,0,.755h1.473l-1.176,2.665H10.186L9.01,17.51h4.506a.377.377,0,1,0,0-.755ZM19.4,4a.377.377,0,1,0-.377.377A.377.377,0,0,0,19.4,4ZM25.03,5.132h-2.44V4A1.889,1.889,0,0,0,20.7,2.113H19.4v-.73A1.385,1.385,0,0,0,18.012,0H7.747A1.385,1.385,0,0,0,6.363,1.384v.73H5.056A1.889,1.889,0,0,0,3.17,4V5.132H.729a.73.73,0,0,0-.73.73V10.49a.73.73,0,0,0,.73.73h.8a.73.73,0,0,0,.73-.73v-4.6H3.17V8.973a.377.377,0,0,0,.755,0V4A1.133,1.133,0,0,1,5.056,2.868H20.7A1.133,1.133,0,0,1,21.835,4V17.974H19.263a.729.729,0,0,0-.67.442L17.8,20.263a.478.478,0,0,0,.439.666h3.6v.528A1.133,1.133,0,0,1,20.7,22.59H5.056a1.133,1.133,0,0,1-1.132-1.132v-.528h3.6a.478.478,0,0,0,.439-.666l-.793-1.847a.729.729,0,0,0-.67-.442H3.924V10.734a.377.377,0,1,0-.755,0V21.458a1.89,1.89,0,0,0,1.4,1.821v1.1a1.385,1.385,0,0,0,1.384,1.384H8.49a1.385,1.385,0,0,0,1.384-1.384V23.344h6.011v1.031a1.385,1.385,0,0,0,1.384,1.384H19.81a1.385,1.385,0,0,0,1.384-1.384v-1.1a1.89,1.89,0,0,0,1.4-1.821V5.886H23.5v4.6a.73.73,0,0,0,.73.73h.8a.73.73,0,0,0,.73-.73V5.861a.73.73,0,0,0-.73-.73ZM1.509,10.465H.755V5.886h.755ZM18.641,2.113H7.118v-.73A.63.63,0,0,1,7.747.755H18.012a.63.63,0,0,1,.629.629v.73ZM3.924,18.729H6.479L7.1,20.175H3.924Zm5.2,5.647A.63.63,0,0,1,8.49,25H5.949a.63.63,0,0,1-.629-.629V23.344h3.8Zm11.32,0A.63.63,0,0,1,19.81,25H17.269a.63.63,0,0,1-.629-.629V23.344h3.8Zm1.4-4.2H18.659l.621-1.446h2.555ZM25,10.465H24.25V5.886H25ZM16.9,4.377a.377.377,0,1,0,0-.755H8.864a.377.377,0,0,0,0,.755Zm-6.14,14.465a.377.377,0,0,0,.377.377h3.495a.377.377,0,1,0,0-.755H11.132A.377.377,0,0,0,10.755,18.842ZM7.118,4a.377.377,0,1,0-.377.377A.377.377,0,0,0,7.118,4ZM4.679,6.012v8.353a.881.881,0,0,0,.88.88H20.2a.881.881,0,0,0,.88-.88V6.012a.881.881,0,0,0-.88-.88H5.559a.881.881,0,0,0-.88.88Zm15.647,0v8.353a.126.126,0,0,1-.126.126H5.559a.126.126,0,0,1-.126-.126V6.012a.126.126,0,0,1,.126-.126H20.2a.126.126,0,0,1,.126.126Z" transform="translate(0 0)" fill="#fff"/>
  </g>
</svg>
