<svg xmlns="http://www.w3.org/2000/svg" xmlns:xlink="http://www.w3.org/1999/xlink" width="58" height="58" viewBox="0 0 58 58">
  <defs>
    <clipPath id="clip-path">
      <circle id="Ellipse_67" data-name="Ellipse 67" cx="29" cy="29" r="29" transform="translate(0 0.432)" fill="#fff" stroke="#29abb8" stroke-width="2" stroke-dasharray="4"/>
    </clipPath>
  </defs>
  <g id="Mask_Group_5" data-name="Mask Group 5" transform="translate(0 -0.432)" clip-path="url(#clip-path)">
    <g id="svgexport-6_1_" data-name="svgexport-6 (1)" transform="translate(6 11)">
      <g id="Group_9680" data-name="Group 9680">
        <path id="Path_8828" data-name="Path 8828" d="M4.582,39.86H7.554a.773.773,0,0,0,.773-.773V11.176H26.592V21.82a.773.773,0,0,0,1.547,0V10.4a.773.773,0,0,0-.773-.773H7.554a.773.773,0,0,0-.773.773V38.313h-2.2a.773.773,0,0,0,0,1.547Z" transform="translate(-3.815 -9.629)" fill="#fff"/>
        <path id="Path_8829" data-name="Path 8829" d="M18.3,15.577a.773.773,0,0,0-.773-.773H13.3a.773.773,0,0,0-.773.773V19.8a.773.773,0,0,0,.773.773h4.227A.773.773,0,0,0,18.3,19.8Zm-1.547,3.455H14.074V16.351h2.681Z" transform="translate(-5.749 -10.779)" fill="#fff"/>
        <path id="Path_8830" data-name="Path 8830" d="M23.535,20.579h4.227a.773.773,0,0,0,.773-.773V15.578a.773.773,0,0,0-.773-.773H23.535a.773.773,0,0,0-.773.773v4.227a.773.773,0,0,0,.773.773Zm.773-4.227h2.681v2.681H24.308Z" transform="translate(-8.023 -10.779)" fill="#fff"/>
        <path id="Path_8831" data-name="Path 8831" d="M18.3,24.3a.773.773,0,0,0-.773-.773H13.3a.773.773,0,0,0-.773.773v4.227a.773.773,0,0,0,.773.773h4.227a.773.773,0,0,0,.773-.773Zm-1.547,3.455H14.074V25.074h2.681Z" transform="translate(-5.749 -12.716)" fill="#fff"/>
        <path id="Path_8832" data-name="Path 8832" d="M22.762,28.527a.773.773,0,0,0,.773.773h4.227a.773.773,0,0,0,.773-.773V24.3a.773.773,0,0,0-.773-.773H23.535a.773.773,0,0,0-.773.773Zm1.547-3.455h2.681v2.681H24.308Z" transform="translate(-8.023 -12.716)" fill="#fff"/>
        <path id="Path_8833" data-name="Path 8833" d="M17.526,32.244H13.3a.773.773,0,0,0-.773.773v4.227a.773.773,0,0,0,.773.773h4.227a.773.773,0,0,0,.773-.773V33.017a.772.772,0,0,0-.773-.773Zm-.773,4.227H14.072V33.79h2.681Z" transform="translate(-5.749 -14.652)" fill="#fff"/>
        <path id="Path_8834" data-name="Path 8834" d="M33.985,40.314a2.924,2.924,0,0,0-2.506-1.125A1.781,1.781,0,0,0,30,39.91a2.843,2.843,0,0,0-.333,2.322c.076.247.234.761,2.2,1.323a9.043,9.043,0,0,0,2.108.37c.722.034,1.256-.412,1.2-1.011a4.194,4.194,0,0,0-1.189-2.6ZM31.12,41.628a1.3,1.3,0,0,1,.129-.8c.028-.039.067-.092.23-.092a1.393,1.393,0,0,1,1.3.551,2.887,2.887,0,0,1,.7,1.05A9.126,9.126,0,0,1,31.12,41.628Z" transform="translate(-9.534 -16.195)" fill="#fff"/>
        <path id="Path_8835" data-name="Path 8835" d="M46.443,41.964H37.648a.773.773,0,0,0,0,1.547h8.795A.773.773,0,0,0,46.443,41.964Z" transform="translate(-11.159 -16.811)" fill="#fff"/>
        <path id="Path_8836" data-name="Path 8836" d="M45.707,44.624H38.979a.773.773,0,0,0,0,1.547h6.728A.773.773,0,0,0,45.707,44.624Z" transform="translate(-11.455 -17.402)" fill="#fff"/>
        <path id="Path_8837" data-name="Path 8837" d="M30.928,29.713l-1.753,3.643a1.731,1.731,0,0,0-1.547-.776c-3.47.11-3.023,3.7.3,3.475a10.627,10.627,0,0,1-1.058,1.681A3.3,3.3,0,0,0,26.2,40.3a31.792,31.792,0,0,1,.345,5.165,1.678,1.678,0,0,0,.3.946v2.136a1.495,1.495,0,0,0,1.5,1.5h2.352a1.5,1.5,0,0,0,1.494-1.493V47.148H46.725v1.4a1.495,1.495,0,0,0,1.495,1.5h2.353a1.5,1.5,0,0,0,1.493-1.493v-2.14a1.673,1.673,0,0,0,.3-.946,32.2,32.2,0,0,1,.346-5.166,3.3,3.3,0,0,0-.669-2.569,10.553,10.553,0,0,1-1.057-1.681c3.323.226,3.767-3.364.3-3.475a1.732,1.732,0,0,0-1.547.776l-1.753-3.643a2.741,2.741,0,0,0-1.892-1.271,32.862,32.862,0,0,0-6.637-.386,32.85,32.85,0,0,0-6.638.386,2.744,2.744,0,0,0-1.889,1.271ZM26.842,34.32a1.493,1.493,0,0,1,.794-.194c.033,0,.206,0,.238.056a.664.664,0,0,1,.066.32c-.069.006-.167.012-.309.012A1.493,1.493,0,0,1,26.842,34.32Zm3.8,14.184H28.394V47.153h2.247ZM32,45.6c.433-.467.722-.71,1.175-.71H45.751c.452,0,.742.243,1.175.71Zm16.277,2.9V47.153h2.246V48.5Zm2.91-8.454a33.824,33.824,0,0,0-.367,5.414.137.137,0,0,1-.138.136H49.1c-1.091-.877-1.608-2.228-3.353-2.257H33.166c-1.746.029-2.262,1.38-3.353,2.257H28.236a.139.139,0,0,1-.138-.137,33.495,33.495,0,0,0-.367-5.413,1.753,1.753,0,0,1,.36-1.361,14.63,14.63,0,0,0,1.873-3.337H48.95a14.591,14.591,0,0,0,1.874,3.337,1.753,1.753,0,0,1,.359,1.361Zm-.139-5.87c.036-.053.206-.056.238-.056a1.5,1.5,0,0,1,.794.194,1.5,1.5,0,0,1-.794.194c-.137,0-.236-.006-.309-.012a.673.673,0,0,1,.071-.318ZM39.457,29.6c2.624.031,6.468-.069,7.135.78l1.65,3.423H30.676l1.65-3.423C32.99,29.533,36.825,29.636,39.457,29.6Z" transform="translate(-8.57 -13.722)" fill="#fff"/>
        <path id="Path_8838" data-name="Path 8838" d="M53.96,39.189a2.891,2.891,0,0,0-2.422,1.036,4.244,4.244,0,0,0-1.273,2.687.919.919,0,0,0,.811.978,7.1,7.1,0,0,0,2.5-.337c1.959-.562,2.121-1.075,2.2-1.323C56.124,41.07,55.672,39.183,53.96,39.189Zm.36,2.439a9.151,9.151,0,0,1-2.356.707,2.887,2.887,0,0,1,.7-1.051,1.389,1.389,0,0,1,1.3-.551c.163,0,.206.053.231.092a1.3,1.3,0,0,1,.129.8Z" transform="translate(-14.131 -16.195)" fill="#fff"/>
      </g>
    </g>
  </g>
</svg>
