<svg xmlns="http://www.w3.org/2000/svg" width="24.806" height="15.136" viewBox="0 0 24.806 15.136">
  <g id="svgexport-6_9_" data-name="svgexport-6 (9)" transform="translate(-2.5 -14.5)">
    <g id="Group_419" data-name="Group 419" transform="translate(2.5 14.5)">
      <g id="Group_418" data-name="Group 418" transform="translate(0 0)">
        <g id="Group_417" data-name="Group 417">
          <path id="Path_4013" data-name="Path 4013" d="M26.465,16.182H3.341a.841.841,0,1,1,0-1.682H26.465a.841.841,0,0,1,0,1.682Z" transform="translate(-2.5 -14.5)" fill="#707070"/>
        </g>
      </g>
    </g>
    <g id="Group_422" data-name="Group 422" transform="translate(2.5 21.227)">
      <g id="Group_421" data-name="Group 421" transform="translate(0 0)">
        <g id="Group_420" data-name="Group 420">
          <path id="Path_4014" data-name="Path 4014" d="M14.693,32.182H3.341a.841.841,0,0,1,0-1.682H14.693a.841.841,0,0,1,0,1.682Z" transform="translate(-2.5 -30.5)" fill="#707070"/>
        </g>
      </g>
    </g>
    <g id="Group_425" data-name="Group 425" transform="translate(2.5 27.954)">
      <g id="Group_424" data-name="Group 424">
        <g id="Group_423" data-name="Group 423">
          <path id="Path_4015" data-name="Path 4015" d="M14.693,48.182H3.341a.841.841,0,1,1,0-1.682H14.693a.841.841,0,0,1,0,1.682Z" transform="translate(-2.5 -46.5)" fill="#707070"/>
        </g>
      </g>
    </g>
  </g>
</svg>
