<svg id="ios_share_black_24dp" xmlns="http://www.w3.org/2000/svg" width="24" height="24" viewBox="0 0 24 24">
  <g id="Group_415" data-name="Group 415">
    <rect id="Rectangle_1496" data-name="Rectangle 1496" width="24" height="24" fill="none"/>
  </g>
  <g id="Group_416" data-name="Group 416">
    <path id="Path_4010" data-name="Path 4010" d="M16,5,14.58,6.42,12.99,4.83V16H11.01V4.83L9.42,6.42,8,5l4-4Zm4,5V21a2.006,2.006,0,0,1-2,2H6a2,2,0,0,1-2-2V10A1.993,1.993,0,0,1,6,8H9v2H6V21H18V10H15V8h3A2,2,0,0,1,20,10Z" fill="#fff"/>
  </g>
</svg>
