<svg xmlns="http://www.w3.org/2000/svg" xmlns:xlink="http://www.w3.org/1999/xlink" width="58" height="58" viewBox="0 0 58 58">
  <defs>
    <clipPath id="clip-path">
      <circle id="Ellipse_65" data-name="Ellipse 65" cx="29" cy="29" r="29" transform="translate(0 0.432)" fill="#fff" stroke="#29abb8" stroke-width="2" stroke-dasharray="4"/>
    </clipPath>
  </defs>
  <g id="Mask_Group_6" data-name="Mask Group 6" transform="translate(0 -0.432)" clip-path="url(#clip-path)">
    <g id="svgexport-6_2_" data-name="svgexport-6 (2)" transform="translate(9 9.643)">
      <g id="Group_9684" data-name="Group 9684">
        <g id="Group_9683" data-name="Group 9683">
          <path id="Path_8839" data-name="Path 8839" d="M39.012,18.161V0H1.345V18.161H0V22.2H1.345V40.357H39.012V22.2h1.345V18.161ZM2.69,1.345H37.667V18.161H36.321V16.143a3.363,3.363,0,0,0-2.758-3.3,3.33,3.33,0,0,0,.74-2.079V8.071a3.367,3.367,0,0,0-3.363-3.363H27.577a.673.673,0,0,0-.673.673,3.352,3.352,0,0,0,1.749,2.931,3.332,3.332,0,0,0,.3,5.147c-.067.041-.135.079-.194.122l-.018.011a4.381,4.381,0,0,0-.41.333l-.006.01-.507.55-.332.491c-.012.021-.02.043-.032.064-.032.057-.057.116-.086.174a4.314,4.314,0,0,0-.185.424c-.026.067-.05.141-.072.213a4.287,4.287,0,0,0-.111.441c-.013.067-.029.135-.04.2a4.389,4.389,0,0,0-.055.657v1.009H22.869V16.815a4.036,4.036,0,0,0-1.942-3.443,3.344,3.344,0,0,0,1.269-2.61V8.219a2.006,2.006,0,0,0,.673-1.493V4.036a.673.673,0,1,0-1.345,0,.673.673,0,0,1-.673.673H16.815A2.01,2.01,0,0,0,15.47,8.219v2.543a3.344,3.344,0,0,0,1.269,2.61A4.036,4.036,0,0,0,14.8,16.815v1.345H10.762V16.815H12.78a.673.673,0,0,0,.673-.673V10.762a.673.673,0,0,0-.673-.673H4.708a.673.673,0,0,0-.673.673v5.381a.673.673,0,0,0,.673.673H6.726v1.345H2.69ZM29.282,14.878a2.994,2.994,0,0,1,1.308-.673c-.009.017-.015.035-.024.052-.018.036-.034.072-.05.109-.036.077-.067.155-.1.236-.014.041-.028.082-.04.124-.024.083-.044.167-.06.254-.007.038-.016.076-.022.115a2.636,2.636,0,0,0-.03.375v.394Zm.985,2.888v3.085H28.25v-3.7a3.014,3.014,0,0,1,.054-.55c0-.024.007-.049.013-.074a2.971,2.971,0,0,1,.153-.5l.019-.045Zm-1.345-7a2.018,2.018,0,0,1,2.018-2.018h2.018v2.018a2.018,2.018,0,0,1-4.036,0Zm-.558-4.708h2.575a2.021,2.021,0,0,1,1.9,1.345H30.268A2.021,2.021,0,0,1,28.365,6.054Zm3.248,13.058V15.47a1.349,1.349,0,0,1,.874-1.254,1.324,1.324,0,0,1,.471-.091,2.018,2.018,0,0,1,2.018,2.018v4.708H31.613ZM16.815,8.744h4.036v2.018a2.018,2.018,0,0,1-4.036,0Zm-.673-2.018a.673.673,0,0,1,.673-.673h4.036a2.01,2.01,0,0,0,.673-.115v.788a.673.673,0,0,1-.673.673H16.815A.673.673,0,0,1,16.143,6.726Zm2.69,7.4a2.69,2.69,0,0,1,2.69,2.69v1.345H16.143V16.815A2.69,2.69,0,0,1,18.833,14.125ZM7.4,15.47H5.381V11.435h6.726V15.47Zm2.018,1.345v1.345H8.071V16.815Zm-8.071,2.69H26.9v1.345H1.345ZM24.338,39.012H2.69V22.2H26.9V36.321h-.673a2.018,2.018,0,0,0-2.018,2.018A1.993,1.993,0,0,0,24.338,39.012Zm5.93,0H26.232a.673.673,0,1,1,0-1.345h4.036Zm0-2.69H28.25V24.887h2.018ZM28.25,23.542V22.2H34.3v1.345H28.25Zm4.708,15.47H31.613V37.667h1.345Zm0-2.69H31.613V24.887h1.345Zm4.708,2.69H34.3V24.887h1.345V22.2h2.018Zm1.345-18.161h-2.69V19.506h2.69Z" fill="#fff"/>
        </g>
      </g>
    </g>
  </g>
</svg>
