<svg xmlns="http://www.w3.org/2000/svg" xmlns:xlink="http://www.w3.org/1999/xlink" width="58" height="58" viewBox="0 0 58 58">
  <defs>
    <clipPath id="clip-path">
      <circle id="Ellipse_64" data-name="Ellipse 64" cx="29" cy="29" r="29" transform="translate(0 0.432)" fill="#fff" stroke="#29abb8" stroke-width="2" stroke-dasharray="4"/>
    </clipPath>
  </defs>
  <g id="Mask_Group_3" data-name="Mask Group 3" transform="translate(0 -0.432)" clip-path="url(#clip-path)">
    <g id="svgexport-9" transform="translate(6 12)">
      <g id="Group_9661" data-name="Group 9661">
        <g id="Group_9660" data-name="Group 9660">
          <path id="Path_8819" data-name="Path 8819" d="M39.483,23.538a1.75,1.75,0,0,0,.189-1.621,4.154,4.154,0,0,0-3.851-2.641H33.431v-2.14a2.071,2.071,0,0,0,1.38-1.95V14.176a1.058,1.058,0,0,0-1.057-1.057H31.733a1.058,1.058,0,0,0-1.057,1.057v1.011a2.071,2.071,0,0,0,1.38,1.95v2.14H27.708V14.329c.083-.966-.817-1.941-1.517-2.583V9.183a.687.687,0,0,0-1.375,0v2.563A3.685,3.685,0,0,0,23.3,14.329v4.948H18.95v-2.14a2.071,2.071,0,0,0,1.38-1.95V14.176a1.058,1.058,0,0,0-1.057-1.057H17.252a1.058,1.058,0,0,0-1.057,1.057v1.011a2.071,2.071,0,0,0,1.38,1.95v2.14H15.222a4.154,4.154,0,0,0-3.851,2.641A1.78,1.78,0,0,0,13,24.3h8.8v1.575a2.023,2.023,0,0,0,2.021,2.021h1.005V37.1l-3.223,2.594a1.039,1.039,0,0,0,.6,1.857l6.615,0a1.037,1.037,0,0,0,.6-1.858l-3.222-2.58V27.894h1.005a2.023,2.023,0,0,0,2.021-2.021V23.611a.687.687,0,0,0-.687-.687H13c-.168-.037-.4-.057-.351-.511a2.771,2.771,0,0,1,2.569-1.761h20.6a2.771,2.771,0,0,1,2.569,1.761c.026.17.091.392-.351.511H31.826a.687.687,0,1,0,0,1.375H38.04a1.75,1.75,0,0,0,1.444-.76ZM32.05,14.493h1.386v.693a.693.693,0,0,1-1.386,0v-.693Zm-14.481,0h1.386v.693a.693.693,0,0,1-1.386,0Zm5.636,25.683,2.311-1.86,2.319,1.858ZM27.86,24.3v1.575a.647.647,0,0,1-.646.646H23.829a.647.647,0,0,1-.646-.646V24.3Zm-3.187-5.022V14.329c.524-1.96,1.417-1.211,1.66,0v4.948Z" transform="translate(-2.182 -8.496)" fill="#fff"/>
          <path id="Path_8820" data-name="Path 8820" d="M11.1,34.165a2.433,2.433,0,0,0-.106-.24,2.243,2.243,0,0,0,2.659-2.113A2.115,2.115,0,0,0,11.541,29.7H4.226V22.421a.687.687,0,1,0-1.375,0v7.371a1.283,1.283,0,0,0,1.281,1.281h7.409a.738.738,0,0,1,0,1.477H4.132a2.761,2.761,0,0,1-2.758-2.758V17.773a.738.738,0,1,1,1.477,0v1.412a.687.687,0,0,0,1.375,0V17.773a2.113,2.113,0,1,0-4.226,0V29.792a4.137,4.137,0,0,0,3.776,4.116,2.484,2.484,0,0,0-.142.339l-2.578,7.79a.687.687,0,1,0,1.3.432l2.578-7.79a1.1,1.1,0,0,1,1.044-.754h2.8a1.1,1.1,0,0,1,1.031.718l2.91,7.85a.71.71,0,0,0,.883.406.687.687,0,0,0,.405-.883Z" transform="translate(0 -9.885)" fill="#fff"/>
          <path id="Path_8821" data-name="Path 8821" d="M54.618,29.792V17.773a2.113,2.113,0,1,0-4.226,0V29.7H43.077a2.115,2.115,0,0,0-2.113,2.113,2.248,2.248,0,0,0,2.659,2.113,2.431,2.431,0,0,0-.106.24l-2.91,7.85a.687.687,0,0,0,.406.883.719.719,0,0,0,.883-.406l2.91-7.85a1.1,1.1,0,0,1,1.031-.718h2.8a1.1,1.1,0,0,1,1.044.754l2.578,7.79a.687.687,0,1,0,1.3-.432l-2.578-7.79a2.481,2.481,0,0,0-.141-.339,4.181,4.181,0,0,0,3.776-4.116Zm-1.375,0a2.8,2.8,0,0,1-2.758,2.758H43.077a.739.739,0,0,1,0-1.477h7.409a1.282,1.282,0,0,0,1.281-1.281V17.773a.738.738,0,1,1,1.477,0Z" transform="translate(-7.866 -9.885)" fill="#fff"/>
        </g>
      </g>
    </g>
  </g>
</svg>
