<svg id="svgexport-6_8_" data-name="svgexport-6 (8)" xmlns="http://www.w3.org/2000/svg" width="25.759" height="25.615" viewBox="0 0 25.759 25.615">
  <path id="Path_4007" data-name="Path 4007" d="M72.491,16.46l1.513-.1h.008a3.564,3.564,0,0,0,2.656-1.551l1.2-1.755A7.083,7.083,0,0,0,79,7.86a1.6,1.6,0,0,0-1.5-1.329,7.081,7.081,0,0,0-5.023,1.751l-1.6,1.4A3.564,3.564,0,0,0,69.657,12.5s0,.005,0,.008l.086,1.514a2.131,2.131,0,0,1-.593,1.6L56.657,28.457A1.816,1.816,0,0,0,56.17,29.8a2.087,2.087,0,0,0,2.115,2.029q.083,0,.166-.007a1.816,1.816,0,0,0,1.281-.646L70.976,17.24a2.131,2.131,0,0,1,1.515-.781Zm-2.115.295L59.134,30.694a1.051,1.051,0,0,1-.744.364,1.319,1.319,0,0,1-1.448-1.284,1.049,1.049,0,0,1,.27-.78L69.706,16.159a2.906,2.906,0,0,0,.809-2.178l-.086-1.51a2.8,2.8,0,0,1,.958-2.21l1.6-1.4A6.318,6.318,0,0,1,77.464,7.3a.827.827,0,0,1,.775.687,6.315,6.315,0,0,1-1.013,4.633l-1.2,1.756a2.8,2.8,0,0,1-2.079,1.216l-1.509.1a2.907,2.907,0,0,0-2.066,1.066Zm0,0" transform="translate(-53.343 -6.22)" fill="#fff"/>
  <path id="Path_4008" data-name="Path 4008" d="M300.16,294.631,291.782,287a.386.386,0,1,0-.52.571l8.376,7.629a1.051,1.051,0,0,1,.318.764,1.319,1.319,0,0,1-1.368,1.368,1.05,1.05,0,0,1-.762-.316l-7.465-8.2a.386.386,0,1,0-.571.52l7.467,8.2a1.815,1.815,0,0,0,1.316.566h.04a2.09,2.09,0,0,0,2.115-2.156,1.817,1.817,0,0,0-.568-1.318Zm0,0" transform="translate(-275.114 -272.491)" fill="#fff"/>
  <path id="Path_4009" data-name="Path 4009" d="M4.659,10.666A3.576,3.576,0,0,0,7,11.611h.008l1.516,0a2.13,2.13,0,0,1,1.558.687l.668.733a.386.386,0,1,0,.571-.52l-.669-.734a2.906,2.906,0,0,0-2.125-.939l-1.512,0A2.806,2.806,0,0,1,5.2,10.114L.806,4.89A.133.133,0,0,1,1,4.71l4,4a1.015,1.015,0,0,0,1.434,0l.47-.47h0l.835-.835h0l.47-.47a1.015,1.015,0,0,0,0-1.434l-4-4a.133.133,0,0,1,.18-.2L9.615,5.7a2.8,2.8,0,0,1,.725,1.812l0,1.512a2.908,2.908,0,0,0,.94,2.126L12,11.8a.386.386,0,1,0,.52-.571l-.715-.651a2.131,2.131,0,0,1-.688-1.559l0-1.516s0-.006,0-.008a3.576,3.576,0,0,0-.945-2.338.386.386,0,0,0-.035-.034L4.888.713A.906.906,0,0,0,3.665,2.047l4,4a.242.242,0,0,1,0,.342l-.2.2L3.01,2.128a.386.386,0,0,0-.546.546L6.922,7.132l-.289.289L2.175,2.963a.386.386,0,0,0-.546.546L6.087,7.967l-.2.2a.242.242,0,0,1-.342,0l-4-4A.906.906,0,0,0,.215,5.387l4.411,5.243a.359.359,0,0,0,.034.035Zm0,0" transform="translate(0 -0.499)" fill="#fff"/>
</svg>
